<svg xmlns="http://www.w3.org/2000/svg" viewBox="0 0 800 100" width="800" height="100">
    <!-- Server Icon -->
    <g transform="translate(50, 25)">
        <rect x="0" y="0" width="50" height="50" rx="8" fill="#6366f1"/>
        <rect x="8" y="10" width="34" height="8" rx="2" fill="#0a0a0f" opacity="0.5"/>
        <rect x="8" y="22" width="34" height="8" rx="2" fill="#0a0a0f" opacity="0.5"/>
        <rect x="8" y="34" width="34" height="8" rx="2" fill="#0a0a0f" opacity="0.5"/>
        <circle cx="42" cy="8" r="3" fill="#10b981"/>
    </g>
    
    <!-- Database Icon -->
    <g transform="translate(150, 25)">
        <ellipse cx="25" cy="10" rx="22" ry="8" fill="#06b6d4"/>
        <rect x="3" y="10" width="44" height="35" fill="#06b6d4"/>
        <ellipse cx="25" cy="45" rx="22" ry="8" fill="#06b6d4"/>
        <ellipse cx="25" cy="10" rx="18" ry="5" fill="#0a0a0f" opacity="0.3"/>
        <line x1="10" y1="20" x2="40" y2="20" stroke="#0a0a0f" opacity="0.3"/>
        <line x1="10" y1="28" x2="40" y2="28" stroke="#0a0a0f" opacity="0.3"/>
        <line x1="10" y1="36" x2="40" y2="36" stroke="#0a0a0f" opacity="0.3"/>
    </g>
    
    <!-- Cloud Icon -->
    <g transform="translate(250, 25)">
        <path d="M10 35 Q0 25 15 18 Q18 10 30 12 Q38 5 50 12 Q62 8 70 18 Q85 20 75 32 Q72 40 60 40 L20 40 Q10 40 10 35Z" fill="#f472b6"/>
    </g>
    
    <!-- Shield Icon -->
    <g transform="translate(350, 25)">
        <path d="M25 5 L45 15 L45 30 Q45 45 25 50 Q5 45 5 30 L5 15 Z" fill="#10b981"/>
        <path d="M25 15 L35 22 L35 32 Q35 40 25 45 Q15 40 15 32 L15 22 Z" fill="#0a0a0f" opacity="0.3"/>
    </g>
    
    <!-- Network Icon -->
    <g transform="translate(450, 25)">
        <circle cx="25" cy="25" r="8" fill="#6366f1"/>
        <circle cx="10" cy="45" r="6" fill="#818cf8"/>
        <circle cx="40" cy="45" r="6" fill="#818cf8"/>
        <line x1="20" y1="30" x2="12" y2="40" stroke="#818cf8" stroke-width="2"/>
        <line x1="30" y1="30" x2="38" y2="40" stroke="#818cf8" stroke-width="2"/>
    </g>
    
    <!-- Code Icon -->
    <g transform="translate(550, 25)">
        <rect x="5" y="5" width="40" height="40" rx="5" fill="#6366f1"/>
        <polyline points="18,18 12,25 18,32" fill="none" stroke="#0a0a0f" stroke-width="3" opacity="0.5"/>
        <polyline points="32,18 38,25 32,32" fill="none" stroke="#0a0a0f" stroke-width="3" opacity="0.5"/>
    </g>
    
    <!-- Chart Icon -->
    <g transform="translate(650, 25)">
        <rect x="5" y="5" width="40" height="40" rx="5" fill="#06b6d4"/>
        <rect x="10" y="30" width="8" height="15" fill="#0a0a0f" opacity="0.4"/>
        <rect x="22" y="20" width="8" height="25" fill="#0a0a0f" opacity="0.4"/>
        <rect x="34" y="12" width="8" height="33" fill="#0a0a0f" opacity="0.4"/>
    </g>
    
    <!-- Settings Icon -->
    <g transform="translate(750, 25)">
        <circle cx="25" cy="25" r="20" fill="#f472b6"/>
        <circle cx="25" cy="25" r="8" fill="#0a0a0f" opacity="0.4"/>
        <rect x="23" y="2" width="4" height="10" fill="#0a0a0f" opacity="0.4"/>
        <rect x="23" y="38" width="4" height="10" fill="#0a0a0f" opacity="0.4"/>
        <rect x="2" y="23" width="10" height="4" fill="#0a0a0f" opacity="0.4"/>
        <rect x="38" y="23" width="10" height="4" fill="#0a0a0f" opacity="0.4"/>
    </g>
</svg>